<svg xmlns="http://www.w3.org/2000/svg" viewBox="0 0 316.81 139.95">
  <defs>
    <style>
      .cls-1{fill:#231815;}
      .cls-2{fill:#f9eeeb;}
      .cls-3{fill:#e83828;}
    </style>
  </defs>
  <title>logo</title>

  <g id="subcopy">
    <path class="cls-1" d="M10.79,122.53c-.29.17-.58.34-.92.51a7.32,7.32,0,0,0,0-1.93c-.24-1.33-2.51-1.25-2.41.12a10.5,10.5,0,0,1,0,2.6,6.44,6.44,0,0,1-3.33-.14c-1.81-.65-2,1.54-.82,2.07a7,7,0,0,0,3.52.34,74.53,74.53,0,0,1-4.22,10.46c-1,2,1.54,2.75,2.27,1.13A94.89,94.89,0,0,0,9.3,125.57a15.61,15.61,0,0,0,2.43-1A1.15,1.15,0,1,0,10.79,122.53Z"/>
    <path class="cls-1" d="M18,135.71c-2.82.24-4.29.36-5.52-.89s-2.75.63-1.71,1.78,4,2.29,7.54,1.59A1.25,1.25,0,1,0,18,135.71Z"/>
    <path class="cls-1" d="M18.84,126.24a9,9,0,0,0-5.78-.12c-1.59.55-.84,2.53.41,2.07a8.46,8.46,0,0,1,4.82.24C19.8,128.94,20.45,126.82,18.84,126.24Z"/>
    <path class="cls-1" d="M38.67,124a10.07,10.07,0,0,0-10.41.55c-3.23,2.24-4.84,6.72-3.33,9.71,1.06,2.07,3.08,3,4.94,1.3a19,19,0,0,0,4.87-9.76,1.2,1.2,0,0,0-.34-1.11,6.25,6.25,0,0,1,3,1A5.2,5.2,0,0,1,38.72,133a7.47,7.47,0,0,1-4.48,2.7c-2.07.48-1.32,2.92.8,2.36a10.08,10.08,0,0,0,5.88-4C43,130.63,42.41,126.2,38.67,124Zm-6.38,1.57c-.24,2.6-1.93,6.43-3.73,8-.6.53-1.23.17-1.59-.53-1-1.86.19-5.06,2.43-6.79a8,8,0,0,1,3.11-1.45A1.72,1.72,0,0,0,32.29,125.52Z"/>
    <path class="cls-1" d="M60,133.86c-4.19,3.3-8.48,3.54-8.63,0a66.65,66.65,0,0,1,.43-7.08c.12-1.61.29-3.9.34-5.42s-2.67-1.74-2.63,0c0,1.49-.12,3.86-.19,5.42-.12,2.55-.39,4.6-.29,7.13.22,6.5,7.93,5.81,12.63,2A1.34,1.34,0,1,0,60,133.86Z"/>
    <path class="cls-1" d="M76.37,121.52a1.35,1.35,0,1,0-2.14-1.64,59.33,59.33,0,0,1-4.94,5.45c-1.88,2-1.88,3.66-.29,5.52a44.4,44.4,0,0,1,5.11,7.83c.77,1.54,3.11.12,2.36-1.49-1.18-2.58-3.23-4.84-5.64-7.85-.8-1-.75-1.71.29-2.75C72.61,125.09,75.16,123,76.37,121.52Z"/>
    <path class="cls-1" d="M103.23,137.42a13.13,13.13,0,0,1-5.37-1.4c3.69-1.28,4-1.57,4-2.19a1.18,1.18,0,0,0-1.23-1.06,1.29,1.29,0,0,0-.63.17c-1.11.6-2.94,1.33-4,1.74a7.16,7.16,0,0,1-1.16-1.54c4.34,0,4.5-.51,4.5-4,0-.94,0-2-.07-2.67-.19-1.86-2.07-2-4.63-2v-1.59c0-.58-.55-.87-1.13-.87s-1.13.29-1.13.87v1.59c-.63,0-1.28,0-2,.07A2.42,2.42,0,0,0,88,127.18c0,2.26,0,6.46,0,9.78-1.11.22-2.26.43-3.42.6a1.08,1.08,0,1,0,.19,2.14,56.82,56.82,0,0,0,8.55-2c.67-.22,1-.63,1-1a1,1,0,0,0-1.11-.94,1.65,1.65,0,0,0-.46.07c-.72.24-1.59.46-2.53.67v-3.33h2.48c2.6,6.26,10.19,6.51,10.29,6.51a1.24,1.24,0,0,0,1.33-1.23A1,1,0,0,0,103.23,137.42Zm-13.08-9.78c0-.72.34-1.13,1-1.16,1.28,0,2.36,0,3.37,0,.63,0,1.21,0,1.78,0,.89,0,1,.6,1,1.64l-7.16,0C90.13,128,90.15,127.78,90.15,127.64Zm2.31,3.76c-.7,0-1.47,0-2.34,0v-1.57h7.18c0,1.37-.51,1.47-.94,1.49C95,131.38,93.86,131.4,92.46,131.4Z"/>
    <path class="cls-1" d="M84.63,127.11a1.48,1.48,0,0,0,.79-.22A45.94,45.94,0,0,0,93,121.33a.77.77,0,0,1,1.25,0c1.16,1,6.84,5.3,8.31,5.3a1.3,1.3,0,0,0,1.37-1.23,1.12,1.12,0,0,0-.72-1,39.36,39.36,0,0,1-7.64-4.7,3.25,3.25,0,0,0-2.1-.89,2.72,2.72,0,0,0-1.93.89A33.52,33.52,0,0,1,84,125a1.09,1.09,0,0,0-.72,1A1.27,1.27,0,0,0,84.63,127.11Z"/>
    <path class="cls-1" d="M120.79,123.93a8.58,8.58,0,0,1,2.12,1.42c.87,1,2.29-.63,1.28-1.64a8.1,8.1,0,0,0-2.58-1.45C120.43,121.88,119.49,123.42,120.79,123.93Z"/>
    <path class="cls-1" d="M126,133.91c-3.35-1.73-6.7-4.65-9.78-6.87a4.1,4.1,0,0,0-5.45-.07c-1.23.87-3.06,2-3.66,2.29-1.93,1-.19,3.21,1.4,2.27a32.21,32.21,0,0,0,3.57-2.7c1-.79,1.64-.84,2.84,0,2.79,2.07,6.6,6,9.52,7.44C126.34,137.23,127.61,134.7,126,133.91Z"/>
    <path class="cls-1" d="M118.48,126.15a9.29,9.29,0,0,1,2.07,1.49c.84,1,2.31-.53,1.33-1.59a7.94,7.94,0,0,0-2.53-1.54C118.17,124.07,117.21,125.59,118.48,126.15Z"/>
    <path class="cls-1" d="M143,129.13a7.38,7.38,0,0,0-6.77.07c.87-.84,1.83-1.71,2.79-2.6s1.93-1.83,2.7-2.7c1.2-1.35-.39-3.06-2.31-2.51a37.12,37.12,0,0,1-5.3,1.18c-1.64.19-1.28,2.58.63,2.17a19.32,19.32,0,0,0,4-1.23c.19-.1.43-.19.17.14a85.64,85.64,0,0,1-7.28,7.78c-1.49,1.47.92,2.89,1.78,1.61a5.31,5.31,0,0,1,2-1.81c2.43-1.42,5-1.25,6.29-.41s1.45,3.2-.31,4.77a3.23,3.23,0,0,1-1.4.77,3.42,3.42,0,0,0-3.81-3.25c-2.84.1-4,3.08-1.42,4.75,1.83,1.21,5.59,1.11,8-.6S146.5,131.21,143,129.13Zm-7,7.25c-.77-.41-.72-1.4.34-1.49s1.71.75,1.69,1.85A4.33,4.33,0,0,1,136,136.39Z"/>
    <path class="cls-1" d="M150.95,134.87a1.05,1.05,0,0,0-.48,2,9.19,9.19,0,0,1,3,2.53,1.1,1.1,0,0,0,.92.53,1.33,1.33,0,0,0,1.3-1.33C155.65,137,151.79,134.87,150.95,134.87Z"/>
    <path class="cls-1" d="M180.23,125.26c-.84,0-1.78,0-2.77,0a20.35,20.35,0,0,0,.24-3.06,1.27,1.27,0,1,0-2.53-.1,24.21,24.21,0,0,1-.19,3.18c-1.73,0-3.42.07-4.79.12-1.61.07-1.76,2.26.17,2.17,1.21,0,2.7-.12,4.22-.14-.94,3.83-3,7.49-6.26,9.28-1.93,1-.41,3,1.13,2.19,4.29-2.34,6.6-7.11,7.61-11.49,1,0,1.88,0,2.63,0A1.3,1.3,0,0,1,181,128.8c0,1.25-.38,4.58-1.33,6a2.17,2.17,0,0,1-3.37.67,1.25,1.25,0,1,0-1.54,2,4.62,4.62,0,0,0,7.11-1.45c1-1.81,1.47-5.3,1.54-7.73C183.46,126.29,182.11,125.3,180.23,125.26Z"/>
    <path class="cls-1" d="M193.2,123.59c2.6.07,5.93,0,8.19,0,1,0,1.4-.55,1.4-1.13a1.18,1.18,0,0,0-1.3-1.11c-2.43,0-5.81,0-8.12,0C191.51,121.33,191.6,123.54,193.2,123.59Z"/>
    <path class="cls-1" d="M201.72,125.81c-3.28,0-7.33,0-10.43.07a1.15,1.15,0,1,0,.07,2.26c2.58-.1,7.06-.17,9.52-.12.92,0,1,.41.79,1.06-1.08,3.06-4.14,6-8.89,7.25-1.93.51-1,2.89.94,2.29,6-1.83,8.92-5.06,10.6-9.08C205.31,127.18,204.13,125.83,201.72,125.81Z"/>
    <path class="cls-1" d="M227.87,118.22c-1.13-.36-2,1.08-.77,1.57a8.94,8.94,0,0,1,2,1.37c.82.92,2.17-.6,1.21-1.57A7.69,7.69,0,0,0,227.87,118.22Z"/>
    <path class="cls-1" d="M225.77,120.32c-1.11-.41-2.07,1-.84,1.54a8.51,8.51,0,0,1,2,1.45c.79.94,2.19-.53,1.25-1.54A7.46,7.46,0,0,0,225.77,120.32Z"/>
    <path class="cls-1" d="M223.43,122.8c-1.16,0-2.48.17-3.66.27q.25-.36.43-.65c.84-1.4-1.64-2.89-2.48-.84a21.88,21.88,0,0,1-6.43,7.59c-1.64,1-.22,3.11,1.4,2a31.37,31.37,0,0,0,5.52-5.88c.82-.1,3.3-.34,4.26-.36.63,0,.72.1.26,1.08a23.75,23.75,0,0,1-2,3.45,15.94,15.94,0,0,0-3-1.25c-1.69-.48-2.31,1.57-1,1.93a10.54,10.54,0,0,1,2.53,1.16,18.76,18.76,0,0,1-8,5.49c-1.83.6-.89,2.87,1,2.12a20.73,20.73,0,0,0,9-6.26,13.73,13.73,0,0,1,1.45,1.3,1.16,1.16,0,0,0,1.71.07,1.31,1.31,0,0,0,0-1.83,9.1,9.1,0,0,0-1.73-1.52c.94-1.37,1.83-2.87,2.72-4.48S225.92,122.73,223.43,122.8Z"/>
    <path class="cls-1" d="M243.44,124a5.38,5.38,0,0,1-1.78.55c-.24,0-.58,0-.89,0,0-1.18,0-2.29.07-3.47a1.28,1.28,0,0,0-2.55,0c0,3.45.24,5.73.53,10.55,0,.43,0,1,0,1.49a9.54,9.54,0,0,0-4.79.19c-2.77,1-2.72,3.73-.41,5a5,5,0,0,0,7-2.14,9.39,9.39,0,0,1,2,1.52c1.66,1.76,3.4-.7,1.69-2.17a10.2,10.2,0,0,0-3.28-1.81c0-.84,0-1.71,0-2.29,0-1.76-.12-3.25-.17-4.6a5.17,5.17,0,0,0,1.06,0c.41,0,.94-.1,1.47-.19a5.36,5.36,0,0,0,1.52-.51C246.52,125.21,245,123.11,243.44,124Zm-8.75,12.5a.69.69,0,0,1,0-1.33,6.26,6.26,0,0,1,3.81.1C238,136.77,236,137.18,234.69,136.48Z"/>
    <path class="cls-1" d="M257.12,128.63c1.49-1.52,3.61-3.88,5.23-5.54,1.25-1.28.29-2.55-1-2.77-.67-.12-.79-.07-2.12.41a25.76,25.76,0,0,1-4.07,1,1.25,1.25,0,1,0,.43,2.41,12.88,12.88,0,0,0,3.61-1.37c.22-.12.41,0,.22.29-.89,1.23-2.63,3.45-3.85,4.84s-1.45,1.59-2.58,2.89c-.92,1.06-1.06.94-1.54,1.57-1.45,1.9,1.06,2.92,2.24,1.47.6-.72.14-.29,1-1.25,2.63-3,8-4.75,10-2.1,1.13,1.47.39,3.73-2.46,5.2a13.14,13.14,0,0,1-4.31,1.23c-2.07.29-1.47,2.7.46,2.43a16.49,16.49,0,0,0,4.75-1.4c4.72-2,6-6.77,3-9.4C263.89,126.53,259.6,126.7,257.12,128.63Z"/>
    <path class="cls-1" d="M276.64,125.76a18.32,18.32,0,0,1,7.16.07c2,.41,2.48-2.07.46-2.51a25.6,25.6,0,0,0-7.69-.07C274.42,123.57,274.74,126.12,276.64,125.76Z"/>
    <path class="cls-1" d="M285.53,134.92c-3.64,1-7.54,1.21-9.59-.89a1.27,1.27,0,0,0-2,1.57c1.66,2.34,7.45,3.47,12.22,2C288.11,137,287.53,134.36,285.53,134.92Z"/>
    <path class="cls-1" d="M307.79,126.48a8.33,8.33,0,0,1,1.69,1.76c.63,1.06,2.26-.14,1.52-1.3a7.85,7.85,0,0,0-2.1-1.83C307.86,124.51,306.68,125.76,307.79,126.48Z"/>
    <path class="cls-1" d="M303,120.85c-1-1-2.63.07-1.76,1.23.46.6,1.47,1.21,2,2.1.22.34.14.53-.36.79-1.06.58-.36,2,.94,1.71.39-.1.84-.29,1.16-.34a1.46,1.46,0,0,0,1.42-1.61C306.37,123.33,304,121.83,303,120.85Z"/>
    <path class="cls-1" d="M308.78,130.39c-1.35-.79-2.58.77-1.35,1.61a7.31,7.31,0,0,1,2.67,3.54c.58,1.73,3.08.6,2.26-1.3A8.39,8.39,0,0,0,308.78,130.39Z"/>
    <path class="cls-1" d="M313.81,125.42a7.81,7.81,0,0,0-2.17-1.76c-1.06-.55-2.17.75-1,1.42a8.38,8.38,0,0,1,1.76,1.69C313,127.81,314.61,126.56,313.81,125.42Z"/>
    <path class="cls-1" d="M302,127.91c-.89-.92-2.92,0-1.57,1.59.53.6,1.93,1.86,2.58,2.77,1.37,1.93.77,4.77-3.3,3.11a1.07,1.07,0,1,0-.92,1.93c5.3,2.6,9.49-1.61,6.22-6.07A35.89,35.89,0,0,0,302,127.91Z"/>
    <path class="cls-1" d="M295.86,131.83a27,27,0,0,1-2.43,3.33c-1.52,1.64.43,3.28,1.9,1.54a18.83,18.83,0,0,0,2.7-4A1.16,1.16,0,0,0,295.86,131.83Z"/>
  </g>

  <g id="logo_bg">
    <path class="cls-2" d="M312.56,58.27c0,13.72-2.37,23.26-7,29.36s-11.66,8.78-20.91,8.78-16.23-2.68-20.91-8.78-7-15.64-7-29.36.31-25.52,4-31.73,10.64-6.83,24-6.83,20.35.62,24,6.83S312.56,44.55,312.56,58.27Z"/>
  </g>

  <g id="logo_text">
    <path class="cls-1" d="M206,40.82a22.37,22.37,0,0,0-16.55,6.77c-5.92,6.15-7.77,14.87-7.56,20.47.2,5.2,2.45,10.42,5.26,12.57a9.93,9.93,0,0,0,8.51,1.65c7.57-1.73,11.82-13.23,13.15-22.33a3.83,3.83,0,0,0-7.57-1.11A53.59,53.59,0,0,1,199,68.72a18,18,0,0,1-2.86,5.68,3.82,3.82,0,0,1-6.35-.6,12.47,12.47,0,0,1-.87-4.92c-.26-5.91,1.38-12.87,5.9-16.94a15.54,15.54,0,0,1,11.15-4.42c5.75,0,10.19,1.9,13.27,5.64,2.53,3.07,3.7,8.46,3.7,13.1,0,6-3.52,11.56-7.83,13.52a3.83,3.83,0,1,0,3.17,7c7.07-3.21,11.82-11.45,11.82-20.49,0-7.27-1.85-12.31-5.21-16.75C221.85,45.54,216.14,40.82,206,40.82Z"/>
    <circle class="cls-1" cx="261.57" cy="5.19" r="5.09"/>
    <circle class="cls-1" cx="307.38" cy="5.09" r="5.09" transform="translate(86.43 218.84) rotate(-45)"/>
    <path class="cls-1" d="M73.81,86.65A88.2,88.2,0,0,1,45,63.61l21.38.28h.08c1.85,0,2.74-1.68,2.74-3.36S68.21,57,66.35,57l-24.92.19.28-12.49v-.09c0-2.15-2-3.27-3.92-3.27s-3.73,1-3.73,3.27v.09l.28,12.49L10.07,57c-1.85,0-2.82,1.77-2.82,3.45s1,3.45,2.82,3.45h.08l20.27-.28C22.49,74.34,14,82,2.43,88.05.75,89,0,90.2,0,91.51a3.93,3.93,0,0,0,4,3.73,4.88,4.88,0,0,0,2.61-.75,93.35,93.35,0,0,0,27.62-25.1L34,97c0,2.15,2,3.27,3.92,3.27S41.8,99.14,41.8,97l-.28-28.16C53.19,83.76,68,94.4,71.57,94.4A4.61,4.61,0,0,0,76.14,90,3.76,3.76,0,0,0,73.81,86.65Z"/>
    <path class="cls-1" d="M312.27,24.39c-4.89-8.33-13.71-8.93-27.67-8.93s-22.77.6-27.66,8.93c-4.21,7.16-4.54,19.06-4.54,33.88,0,14.54,2.59,25,7.92,31.95s13.33,10.45,24.29,10.45,18.9-3.42,24.29-10.45,7.92-17.41,7.92-31.95C316.81,43.45,316.48,31.54,312.27,24.39ZM302.14,85c-3.72,4.85-9.29,7.11-17.54,7.11S270.79,89.89,267.07,85c-4.15-5.42-6.17-14.17-6.17-26.77s.26-24.28,3.37-29.57c2.36-4,7.38-4.73,20.33-4.73s18,.71,20.33,4.73c3.11,5.29,3.37,17,3.37,29.57S306.29,79.62,302.14,85Z"/>
    <path class="cls-1" d="M5.58,52.91A4.16,4.16,0,0,0,10.7,50a26.33,26.33,0,0,1,2.59-6.29,19.14,19.14,0,0,1,4.2-5.09,16.83,16.83,0,0,1,6.28-3.74,48,48,0,0,1,14-1.72,48,48,0,0,1,14,1.72,16.83,16.83,0,0,1,6.28,3.74,19.14,19.14,0,0,1,4.2,5.09A26.34,26.34,0,0,1,64.89,50a4.15,4.15,0,1,0,8-2.22,27.32,27.32,0,0,0-7-12.22,26.53,26.53,0,0,0-11.8-7,55.36,55.36,0,0,0-16.28-2.06,55.36,55.36,0,0,0-16.28,2.06,26.53,26.53,0,0,0-11.8,7,27.33,27.33,0,0,0-7,12.22A4.15,4.15,0,0,0,5.58,52.91Z"/>
    <path class="cls-1" d="M50.56,25.32a2.58,2.58,0,0,0,.88.25,4.79,4.79,0,0,0,1,0c3-.26,4.86-3.35,6.45-5.64,1.13-1.62,3.31-4.13,3.31-6.24s-2.11-3.6-4.22-3.6a3.56,3.56,0,0,0-3.34,2.37,66.13,66.13,0,0,1-3.54,7.3C50.45,21,49.38,22,49.49,23.5A2.22,2.22,0,0,0,50.56,25.32Z"/>
    <path class="cls-1" d="M13,16.19c2.55,2.2,4.75,3.69,6.77,6.95a2.74,2.74,0,0,0,2.46,1.49A4.08,4.08,0,0,0,26,20.76c0-2.73-7.21-9.67-10.11-9.67-2,0-3.87,1.58-3.87,3.25A2.29,2.29,0,0,0,13,16.19Z"/>
    <path class="cls-1" d="M36.48,21.9a2.7,2.7,0,0,0,2.64,1.76c1.85,0,4-1.58,4-3.6,0-2.64-6-10.9-9.23-10.9-1.94,0-3.78,1.41-3.78,3a2.38,2.38,0,0,0,.62,1.5C33,16.28,35.17,18.47,36.48,21.9Z"/>
    <path class="cls-1" d="M164.79,92.75c-8.11-.38-14.79-1.43-20-3.34,11.45-5,13.07-5.92,13.07-8.11A3.65,3.65,0,0,0,154.2,78a3.36,3.36,0,0,0-2,.67c-3.82,2.58-10.4,6-13.83,7.82a22.81,22.81,0,0,1-6.3-5.72c14.69,0,16.22-1.72,16.22-10,0-2-.09-5.4-.26-7.53.56.26,1.12.49,1.69.7a24.31,24.31,0,0,0,6.57,1.34q.72,0,1.45,0A25.56,25.56,0,0,0,163,64.7a3.54,3.54,0,1,0-1.46-6.93,17.89,17.89,0,0,1-4.83.38c-5.68-.35-10.89-3.3-15-7.12-.6-.56-1.26-1.17-1.92-1.81h2.9l19.08.31h.09c1.85,0,2.81-1.64,2.81-3.28s-1-3.38-2.9-3.38l-30.68.21V37.84l17,.1c1.44,0,2.17-1.43,2.17-2.87s-.72-3-2.17-3l-17,.1v-5l26.11.1a3,3,0,0,0,2.9-3.18,3,3,0,0,0-2.9-3.28H140.6c1.23-2,3.6-6.15,3.6-7.58a4.11,4.11,0,0,0-4-4,3.25,3.25,0,0,0-3.08,2.56,65.27,65.27,0,0,1-3.78,9l-5.63.1-4.84-.1a3.63,3.63,0,0,0-.26-.92c-1.76-4-6.07-9.74-8.62-9.74a3.6,3.6,0,0,0-3.6,3.28,2.71,2.71,0,0,0,.7,1.84,40.32,40.32,0,0,1,4.13,5.53h-17a3,3,0,0,0-2.9,3.28,2.93,2.93,0,0,0,3,3.18l25.85-.1v5l-16.86-.1c-1.52,0-2.31,1.54-2.31,3s.72,2.87,2.31,2.87l16.86-.1v5.23l-30.33-.21a3.15,3.15,0,0,0-3,3.38,3,3,0,0,0,2.9,3.28h.09l19-.31h2.25c-.67.64-1.32,1.25-1.92,1.81-4.1,3.81-9.3,6.77-15,7.12a17.89,17.89,0,0,1-4.83-.38A3.54,3.54,0,0,0,92,64.7a25.56,25.56,0,0,0,5.28.56q.73,0,1.45,0a24.31,24.31,0,0,0,6.57-1.34c.4-.14.79-.31,1.18-.48a7.08,7.08,0,0,0-.12,1.29c-.1,6.49-.29,17.19-.29,26.07-4.87,1.05-9.83,2-14.5,2.67A3.67,3.67,0,0,0,88.18,97a3.39,3.39,0,0,0,3.63,3.34c2.48,0,15.46-2.67,35.11-8.68a3.16,3.16,0,0,0,2.48-3.05,3,3,0,0,0-2.77-3.15,3.39,3.39,0,0,0-1,.19c-3.34,1-7.63,2.19-12.4,3.34,0-3.05.1-6.58.1-8.4,3.63.1,7.44.1,11.26.1,8.68,14.31,29.2,19.37,39.12,19.37,3,0,4.48-2,4.48-3.91A3.41,3.41,0,0,0,164.79,92.75ZM117.31,55.41a64.24,64.24,0,0,0,4.89-5.52,2.76,2.76,0,0,0,.41-.68h9.74a2.76,2.76,0,0,0,.41.68,64.24,64.24,0,0,0,4.89,5.52c.66.62,1.36,1.25,2.06,1.88-.42,0-.86-.05-1.35-.05-2.39-.1-5.06-.1-7.73-.1V54.56c0-1.81-1.81-2.77-3.72-2.77s-3.72,1-3.72,2.77v2.67H115.3C116,56.63,116.66,56,117.31,55.41Zm-3.76,10c.1-3.44.57-3.53,15.55-3.53,3,0,5.82.1,8.3.1,2.67,0,3.53,1.24,3.72,3.15,0,.29.1,2,.1,1.82H113.46Zm9.06,10.8c-3.05,0-6.2,0-9.16-.1V71.37h27.77c0,.87-.1,1.15-.1,1.53C140.75,76.24,140.56,76.24,122.62,76.24Z"/>
  </g>

  <g id="logo_decoration">
    <path class="cls-3" d="M275.77,59.62c3-5,8.54-12,19.1-12.44a8.69,8.69,0,0,1,6.65,2.55,6.54,6.54,0,0,1,1.2,7.09c-3.5,7.49-13.13,8.49-21,10v0a52.08,52.08,0,0,1-6.21.44c-11.35.15-22.87-2.79-30.58-5.3l-4.84-1.77A3.81,3.81,0,0,1,242.53,53l4.79,1.76c10.05,3.28,20,5,28.06,4.91h.39"/>
  </g>
</svg>
