<svg id="レイヤー_1" data-name="レイヤー 1" xmlns="http://www.w3.org/2000/svg" xmlns:xlink="http://www.w3.org/1999/xlink" width="316.81" height="139.95" viewBox="0 0 316.81 139.95"><defs><style>.cls-1{fill:none;}.cls-2{clip-path:url(#clip-path);}.cls-3{fill:#ebebeb;}</style><clipPath id="clip-path" transform="translate(0 0)"><rect class="cls-1" width="316.81" height="139.95"/></clipPath></defs><title>ベクトルスマートオブジェクト</title><g class="cls-2"><path class="cls-3" d="M206,40.82a22.37,22.37,0,0,0-16.55,6.77c-5.92,6.15-7.77,14.87-7.56,20.47,0.2,5.2,2.45,10.42,5.26,12.57a9.94,9.94,0,0,0,8.51,1.65c7.57-1.73,11.82-13.23,13.15-22.33a3.83,3.83,0,1,0-7.57-1.11A53.52,53.52,0,0,1,199,68.72a18,18,0,0,1-2.86,5.68,3.82,3.82,0,0,1-6.35-.6,12.46,12.46,0,0,1-.87-4.92c-0.26-5.91,1.38-12.87,5.9-16.94a15.54,15.54,0,0,1,11.15-4.42c5.75,0,10.19,1.9,13.27,5.64,2.53,3.07,3.7,8.46,3.7,13.1,0,6-3.52,11.56-7.83,13.52a3.83,3.83,0,1,0,3.17,7c7.07-3.21,11.82-11.45,11.82-20.49,0-7.28-1.85-12.31-5.21-16.75-3-4-8.71-8.68-18.9-8.68" transform="translate(0 0)"/><path class="cls-3" d="M261.57,10.29a5.09,5.09,0,1,0-5.1-5.09,5.09,5.09,0,0,0,5.1,5.09" transform="translate(0 0)"/><path class="cls-3" d="M311,8.7a5.09,5.09,0,1,0-7.2,0,5.09,5.09,0,0,0,7.2,0" transform="translate(0 0)"/><path class="cls-3" d="M73.81,86.65A88.21,88.21,0,0,1,45,63.61l21.38,0.28h0.08c1.85,0,2.74-1.68,2.74-3.36S68.21,57,66.35,57l-24.92.19,0.28-12.49V44.58c0-2.15-2-3.27-3.92-3.27s-3.73,1-3.73,3.27v0.09l0.28,12.49L10.07,57c-1.85,0-2.82,1.77-2.82,3.45s1,3.45,2.82,3.45h0.08l20.27-.28C22.49,74.34,14,82,2.43,88.05,0.75,89,0,90.2,0,91.51a3.93,3.93,0,0,0,4,3.73,4.88,4.88,0,0,0,2.61-.75,93.37,93.37,0,0,0,27.62-25.1L34,97c0,2.15,2,3.27,3.92,3.27S41.8,99.14,41.8,97L41.52,68.83C53.19,83.76,68,94.4,71.57,94.4A4.61,4.61,0,0,0,76.14,90a3.76,3.76,0,0,0-2.33-3.36" transform="translate(0 0)"/><path class="cls-3" d="M312.27,24.39c-4.89-8.33-13.71-8.93-27.67-8.93s-22.77.6-27.66,8.93c-4.21,7.16-4.54,19.06-4.54,33.88,0,14.54,2.59,25,7.92,31.95s13.33,10.45,24.29,10.45,18.9-3.42,24.29-10.45,7.92-17.4,7.92-31.94c0-14.82-.33-26.72-4.54-33.88M302.14,85c-3.72,4.85-9.29,7.11-17.54,7.11S270.79,89.9,267.07,85c-4.15-5.42-6.16-14.17-6.16-26.77s0.26-24.28,3.37-29.57c2.36-4,7.38-4.73,20.33-4.73s18,0.71,20.33,4.73c3.11,5.29,3.37,17,3.37,29.57s-2,21.36-6.17,26.77" transform="translate(0 0)"/><path class="cls-3" d="M5.58,52.91A4.16,4.16,0,0,0,10.7,50a26.37,26.37,0,0,1,2.59-6.29,19.15,19.15,0,0,1,4.2-5.09,16.84,16.84,0,0,1,6.28-3.74,48,48,0,0,1,14-1.72,48,48,0,0,1,14,1.72,16.85,16.85,0,0,1,6.28,3.74,19.17,19.17,0,0,1,4.2,5.09A26.41,26.41,0,0,1,64.89,50a4.15,4.15,0,1,0,8-2.22,27.33,27.33,0,0,0-7-12.22,26.54,26.54,0,0,0-11.8-7,55.34,55.34,0,0,0-16.28-2.06,55.34,55.34,0,0,0-16.28,2.06,26.53,26.53,0,0,0-11.8,7,27.33,27.33,0,0,0-7,12.22,4.16,4.16,0,0,0,2.89,5.11" transform="translate(0 0)"/><path class="cls-3" d="M50.56,25.32a2.59,2.59,0,0,0,.88.26,4.76,4.76,0,0,0,1,0c3-.26,4.86-3.35,6.45-5.64,1.13-1.62,3.32-4.13,3.32-6.24s-2.11-3.6-4.22-3.6a3.56,3.56,0,0,0-3.34,2.37,66.24,66.24,0,0,1-3.54,7.3C50.45,21,49.38,22,49.49,23.5a2.22,2.22,0,0,0,1.08,1.82" transform="translate(0 0)"/><path class="cls-3" d="M13,16.19c2.55,2.2,4.75,3.69,6.77,6.95a2.74,2.74,0,0,0,2.46,1.49A4.08,4.08,0,0,0,26,20.76c0-2.73-7.21-9.67-10.11-9.67-2,0-3.87,1.58-3.87,3.25a2.29,2.29,0,0,0,1,1.85" transform="translate(0 0)"/><path class="cls-3" d="M36.49,21.9a2.7,2.7,0,0,0,2.64,1.76c1.85,0,4-1.58,4-3.6,0-2.64-6-10.9-9.23-10.9-1.93,0-3.78,1.41-3.78,3a2.38,2.38,0,0,0,.62,1.49c2.28,2.64,4.48,4.84,5.8,8.26" transform="translate(0 0)"/><path class="cls-3" d="M164.79,92.75c-8.11-.38-14.79-1.43-20-3.34,11.45-5,13.07-5.92,13.07-8.11A3.65,3.65,0,0,0,154.2,78a3.36,3.36,0,0,0-2,.67c-3.82,2.58-10.4,6-13.84,7.82a22.82,22.82,0,0,1-6.3-5.72c14.69,0,16.22-1.72,16.22-10,0-2-.09-5.4-0.26-7.53,0.56,0.26,1.12.49,1.69,0.69a24.31,24.31,0,0,0,6.57,1.35q0.72,0,1.45,0A25.56,25.56,0,0,0,163,64.7a3.54,3.54,0,0,0-1.46-6.93,17.86,17.86,0,0,1-4.83.38c-5.68-.35-10.89-3.3-15-7.12-0.6-.55-1.26-1.17-1.92-1.81h2.9l19.08,0.31h0.09c1.85,0,2.81-1.64,2.81-3.28s-1-3.38-2.9-3.38l-30.69.21V37.84l17,0.1c1.45,0,2.17-1.43,2.17-2.87s-0.72-3-2.17-3l-17,.1v-5l26.11,0.1a3,3,0,0,0,2.9-3.18,3,3,0,0,0-2.9-3.28H140.6c1.23-2,3.6-6.15,3.6-7.58a4.11,4.11,0,0,0-4-4,3.25,3.25,0,0,0-3.08,2.56,65.35,65.35,0,0,1-3.78,9l-5.63.1-4.84-.1a3.63,3.63,0,0,0-.26-0.92c-1.76-4-6.07-9.73-8.62-9.73a3.6,3.6,0,0,0-3.61,3.28,2.72,2.72,0,0,0,.7,1.84,40.28,40.28,0,0,1,4.13,5.53h-17a3,3,0,0,0-2.9,3.28,2.93,2.93,0,0,0,3,3.18l25.85-.1v5l-16.86-.1c-1.52,0-2.31,1.54-2.31,3s0.72,2.87,2.31,2.87l16.86-.1v5.23l-30.33-.21a3.15,3.15,0,0,0-3,3.38,3,3,0,0,0,2.9,3.28h0.09l19-.31h2.25c-0.67.64-1.32,1.25-1.92,1.81-4.1,3.81-9.3,6.77-15,7.12a17.86,17.86,0,0,1-4.83-.38A3.54,3.54,0,0,0,92,64.7a25.56,25.56,0,0,0,5.28.56q0.73,0,1.45,0a24.31,24.31,0,0,0,6.57-1.35c0.4-.14.79-0.32,1.18-0.48a7,7,0,0,0-.12,1.29c-0.1,6.49-.29,17.19-0.29,26.07-4.87,1-9.83,2-14.5,2.67A3.67,3.67,0,0,0,88.18,97a3.39,3.39,0,0,0,3.63,3.34c2.48,0,15.46-2.67,35.11-8.68a3.16,3.16,0,0,0,2.48-3.05,3,3,0,0,0-2.77-3.15,3.4,3.4,0,0,0-1,.19c-3.34,1-7.63,2.19-12.4,3.34,0-3.05.1-6.58,0.1-8.4,3.63,0.1,7.44.1,11.26,0.1,8.68,14.31,29.2,19.37,39.12,19.37,3,0,4.49-2,4.49-3.91a3.41,3.41,0,0,0-3.43-3.44M117.31,55.41a64.17,64.17,0,0,0,4.89-5.51,2.71,2.71,0,0,0,.41-0.68h9.74a2.81,2.81,0,0,0,.41.68,64.5,64.5,0,0,0,4.89,5.51c0.66,0.62,1.36,1.25,2.06,1.88-0.42,0-.86-0.05-1.35-0.05-2.39-.1-5.06-0.1-7.73-0.1V54.56c0-1.81-1.81-2.77-3.72-2.77s-3.72,1-3.72,2.77v2.67h-7.9c0.69-.62,1.36-1.24,2-1.84m-3.76,10c0.1-3.43.57-3.53,15.55-3.53,3,0,5.82.1,8.3,0.1,2.67,0,3.53,1.24,3.72,3.15,0,0.29.1,2,.1,1.83H113.46Zm9.06,10.8c-3.05,0-6.2,0-9.16-.1V71.37h27.77c0,0.87-.1,1.15-0.1,1.53-0.38,3.34-.57,3.34-18.51,3.34" transform="translate(0 0)"/><path class="cls-3" d="M275.77,59.62c3-5,8.54-12,19.1-12.44a8.68,8.68,0,0,1,6.65,2.55,6.54,6.54,0,0,1,1.2,7.09c-3.5,7.49-13.13,8.49-21,10v0a52.15,52.15,0,0,1-6.21.44c-11.35.15-22.87-2.79-30.58-5.31l-4.84-1.77A3.81,3.81,0,0,1,242.53,53l4.79,1.76c10.05,3.28,20,5,28.06,4.91h0.39" transform="translate(0 0)"/><path class="cls-3" d="M10.79,122.53c-0.29.17-.58,0.34-0.92,0.51a7.36,7.36,0,0,0,0-1.93c-0.24-1.33-2.51-1.25-2.41.12a10.49,10.49,0,0,1,0,2.6,6.43,6.43,0,0,1-3.33-.15c-1.81-.65-2,1.54-0.82,2.07a7,7,0,0,0,3.52.34,74.56,74.56,0,0,1-4.22,10.46c-1,2,1.54,2.75,2.27,1.13A95,95,0,0,0,9.3,125.57a15.52,15.52,0,0,0,2.43-1,1.15,1.15,0,1,0-.94-2.07" transform="translate(0 0)"/><path class="cls-3" d="M18,135.71c-2.82.24-4.29,0.36-5.52-.89s-2.75.63-1.71,1.78,4,2.29,7.54,1.59a1.25,1.25,0,1,0-.31-2.48" transform="translate(0 0)"/><path class="cls-3" d="M18.84,126.24a8.94,8.94,0,0,0-5.78-.12c-1.59.56-.84,2.53,0.41,2.07a8.47,8.47,0,0,1,4.82.24c1.52,0.51,2.17-1.61.56-2.19" transform="translate(0 0)"/><path class="cls-3" d="M38.67,124a10.07,10.07,0,0,0-10.41.55c-3.23,2.24-4.84,6.72-3.33,9.71,1.06,2.07,3.08,3,4.94,1.3a19,19,0,0,0,4.87-9.76,1.2,1.2,0,0,0-.34-1.11,6.24,6.24,0,0,1,3,1A5.2,5.2,0,0,1,38.72,133a7.47,7.47,0,0,1-4.48,2.7c-2.07.48-1.32,2.91,0.8,2.36a10.08,10.08,0,0,0,5.88-4c2.1-3.45,1.49-7.88-2.24-10.12m-6.38,1.56c-0.24,2.6-1.93,6.43-3.73,8-0.6.53-1.23,0.17-1.59-.53-1-1.85.19-5.06,2.43-6.79a8,8,0,0,1,3.11-1.45,1.71,1.71,0,0,0-.22.75" transform="translate(0 0)"/><path class="cls-3" d="M60,133.86c-4.19,3.3-8.48,3.54-8.63,0a66.57,66.57,0,0,1,.43-7.08c0.12-1.61.29-3.9,0.34-5.42s-2.68-1.74-2.63,0c0,1.49-.12,3.86-0.19,5.42-0.12,2.55-.39,4.6-0.29,7.13,0.22,6.5,7.93,5.81,12.63,2a1.34,1.34,0,1,0-1.66-2.1" transform="translate(0 0)"/><path class="cls-3" d="M76.37,121.52a1.35,1.35,0,1,0-2.15-1.64,59.28,59.28,0,0,1-4.94,5.45c-1.88,2-1.88,3.66-.29,5.52a44.38,44.38,0,0,1,5.11,7.83c0.77,1.54,3.11.12,2.36-1.49-1.18-2.58-3.23-4.84-5.64-7.85-0.8-1-.75-1.71.29-2.75,1.49-1.49,4-3.59,5.25-5.06" transform="translate(0 0)"/><path class="cls-3" d="M103.23,137.42a13.14,13.14,0,0,1-5.37-1.4c3.69-1.28,4-1.56,4-2.19a1.18,1.18,0,0,0-1.23-1.06,1.3,1.3,0,0,0-.63.17c-1.11.6-2.94,1.32-4,1.73a7.13,7.13,0,0,1-1.16-1.54c4.34,0,4.5-.51,4.5-4,0-.94,0-2-0.07-2.68-0.19-1.86-2.07-2-4.63-2v-1.59a1,1,0,0,0-1.13-.87,1,1,0,0,0-1.13.87v1.59c-0.63,0-1.28,0-2,.07A2.42,2.42,0,0,0,88,127.18c0,2.27,0,6.46,0,9.78-1.11.22-2.26,0.43-3.42,0.6a1.08,1.08,0,1,0,.19,2.14,56.88,56.88,0,0,0,8.55-2,1.16,1.16,0,0,0,1-1,1,1,0,0,0-1.11-.94,1.64,1.64,0,0,0-.46.07c-0.72.24-1.59,0.46-2.53,0.68v-3.32h2.48c2.6,6.26,10.19,6.51,10.29,6.51a1.24,1.24,0,0,0,1.32-1.23,1,1,0,0,0-1-1m-13.08-9.78a1,1,0,0,1,1-1.16c1.28,0,2.36,0,3.37,0,0.63,0,1.2,0,1.78,0,0.89,0,1,.6,1,1.64l-7.15,0c0-.17,0-0.34,0-0.48m2.31,3.76c-0.7,0-1.47,0-2.34,0v-1.57h7.18c0,1.37-.51,1.47-0.94,1.49-1.33.07-2.51,0.1-3.9,0.1" transform="translate(0 0)"/><path class="cls-3" d="M84.63,127.11a1.48,1.48,0,0,0,.79-0.22A46,46,0,0,0,93,121.33a0.77,0.77,0,0,1,1.25,0c1.16,1,6.84,5.3,8.31,5.3a1.3,1.3,0,0,0,1.37-1.23,1.12,1.12,0,0,0-.72-1,39.42,39.42,0,0,1-7.64-4.7,3.25,3.25,0,0,0-2.1-.89,2.72,2.72,0,0,0-1.93.89A33.53,33.53,0,0,1,84,125a1.09,1.09,0,0,0-.72,1,1.27,1.27,0,0,0,1.33,1.16" transform="translate(0 0)"/><path class="cls-3" d="M120.79,123.93a8.56,8.56,0,0,1,2.12,1.42c0.87,1,2.29-.63,1.28-1.64a8.1,8.1,0,0,0-2.58-1.44c-1.18-.39-2.12,1.16-0.82,1.66" transform="translate(0 0)"/><path class="cls-3" d="M126,133.91c-3.35-1.73-6.7-4.65-9.78-6.87a4.1,4.1,0,0,0-5.45-.07c-1.23.87-3.06,2-3.66,2.29-1.93,1-.19,3.21,1.4,2.27a32.21,32.21,0,0,0,3.57-2.7c1-.8,1.64-0.84,2.84,0,2.79,2.07,6.6,6,9.52,7.44,1.85,0.92,3.13-1.61,1.57-2.41" transform="translate(0 0)"/><path class="cls-3" d="M118.48,126.15a9.28,9.28,0,0,1,2.07,1.49c0.84,1,2.31-.53,1.32-1.59a8,8,0,0,0-2.53-1.54c-1.18-.43-2.14,1.08-0.87,1.64" transform="translate(0 0)"/><path class="cls-3" d="M143,129.13a7.38,7.38,0,0,0-6.77.07c0.87-.84,1.83-1.71,2.79-2.6s1.93-1.83,2.7-2.7c1.2-1.35-.38-3.06-2.31-2.51a37.1,37.1,0,0,1-5.3,1.18c-1.64.19-1.28,2.58,0.63,2.17a19.32,19.32,0,0,0,4-1.23c0.19-.1.43-0.19,0.17,0.14a85.72,85.72,0,0,1-7.28,7.78c-1.49,1.47.92,2.89,1.78,1.61a5.3,5.3,0,0,1,2-1.81c2.43-1.42,5-1.25,6.29-.41s1.45,3.2-.31,4.77a3.24,3.24,0,0,1-1.4.77,3.42,3.42,0,0,0-3.81-3.25c-2.84.1-4,3.08-1.42,4.75,1.83,1.2,5.59,1.11,8-.6s3.66-6.07.19-8.14m-7,7.25a0.77,0.77,0,0,1,.34-1.49,1.6,1.6,0,0,1,1.69,1.85,4.32,4.32,0,0,1-2-.36" transform="translate(0 0)"/><path class="cls-3" d="M150.95,134.87a1.05,1.05,0,0,0-.48,2,9.18,9.18,0,0,1,3,2.53,1.1,1.1,0,0,0,.92.53,1.33,1.33,0,0,0,1.3-1.33c0-1.64-3.85-3.76-4.7-3.76" transform="translate(0 0)"/><path class="cls-3" d="M180.23,125.26c-0.84,0-1.78,0-2.77,0a20.35,20.35,0,0,0,.24-3.06,1.27,1.27,0,1,0-2.53-.1,24.13,24.13,0,0,1-.19,3.18c-1.73,0-3.42.07-4.79,0.12-1.61.07-1.76,2.26,0.17,2.17,1.21,0,2.7-.12,4.22-0.14-0.94,3.83-3,7.49-6.26,9.27-1.93,1-.41,3,1.13,2.19,4.29-2.34,6.6-7.11,7.61-11.49,1,0,1.88,0,2.63,0A1.3,1.3,0,0,1,181,128.8c0,1.25-.39,4.58-1.33,6a2.17,2.17,0,0,1-3.37.67,1.25,1.25,0,1,0-1.54,2,4.62,4.62,0,0,0,7.11-1.44c1-1.81,1.47-5.3,1.54-7.73,0-2-1.3-2.94-3.18-3" transform="translate(0 0)"/><path class="cls-3" d="M193.2,123.59c2.6,0.07,5.93,0,8.19,0a1.19,1.19,0,0,0,1.4-1.13,1.18,1.18,0,0,0-1.3-1.11c-2.43,0-5.81,0-8.12,0-1.86,0-1.76,2.19-.17,2.24" transform="translate(0 0)"/><path class="cls-3" d="M201.72,125.81c-3.28,0-7.33,0-10.43.07a1.15,1.15,0,1,0,.07,2.26c2.58-.1,7.06-0.17,9.52-0.12,0.92,0,1,.41.79,1.06-1.08,3.06-4.14,6-8.89,7.25-1.93.51-1,2.89,0.94,2.29,6-1.83,8.91-5.06,10.6-9.08,1-2.36-.19-3.71-2.6-3.73" transform="translate(0 0)"/><path class="cls-3" d="M227.87,118.22c-1.13-.36-2,1.08-0.77,1.57a9,9,0,0,1,2,1.37c0.82,0.91,2.17-.6,1.21-1.57a7.7,7.7,0,0,0-2.43-1.37" transform="translate(0 0)"/><path class="cls-3" d="M225.77,120.32c-1.11-.41-2.07,1-0.84,1.54a8.54,8.54,0,0,1,2,1.44c0.79,0.94,2.19-.53,1.25-1.54a7.47,7.47,0,0,0-2.38-1.45" transform="translate(0 0)"/><path class="cls-3" d="M223.43,122.8c-1.16,0-2.48.17-3.66,0.27,0.17-.24.31-0.46,0.43-0.65,0.84-1.4-1.64-2.89-2.48-.84a21.87,21.87,0,0,1-6.43,7.59c-1.64,1-.22,3.11,1.4,2a31.33,31.33,0,0,0,5.52-5.88c0.82-.1,3.3-0.34,4.26-0.36,0.63,0,.72.1,0.26,1.09a23.68,23.68,0,0,1-2,3.45,16,16,0,0,0-3-1.25c-1.69-.48-2.31,1.57-1,1.93a10.57,10.57,0,0,1,2.53,1.16,18.77,18.77,0,0,1-8,5.49c-1.83.6-.89,2.87,1,2.12a20.73,20.73,0,0,0,9-6.26,13.79,13.79,0,0,1,1.45,1.3,1.16,1.16,0,0,0,1.71.07,1.3,1.3,0,0,0,0-1.83,9.11,9.11,0,0,0-1.73-1.52c0.94-1.37,1.83-2.87,2.72-4.48s0.5-3.44-2-3.37" transform="translate(0 0)"/><path class="cls-3" d="M243.44,124a5.38,5.38,0,0,1-1.78.56c-0.24,0-.58,0-0.89,0,0-1.18,0-2.29.07-3.47a1.28,1.28,0,0,0-2.55,0c0,3.44.24,5.73,0.53,10.55,0,0.43,0,1,0,1.49a9.54,9.54,0,0,0-4.79.19c-2.77,1-2.72,3.74-.41,5a5,5,0,0,0,7-2.14,9.35,9.35,0,0,1,2,1.52c1.66,1.76,3.4-.7,1.69-2.17a10.19,10.19,0,0,0-3.28-1.81c0-.84,0-1.71,0-2.29,0-1.76-.12-3.25-0.17-4.6a5.11,5.11,0,0,0,1.06,0c0.41,0,.94-0.1,1.47-0.19a5.38,5.38,0,0,0,1.52-.51c1.64-.91.07-3-1.45-2.15m-8.75,12.5a0.69,0.69,0,0,1,0-1.32,6.26,6.26,0,0,1,3.81.1c-0.51,1.52-2.53,1.93-3.83,1.23" transform="translate(0 0)"/><path class="cls-3" d="M257.12,128.63c1.49-1.52,3.61-3.88,5.23-5.54,1.25-1.28.29-2.55-1-2.77-0.67-.12-0.79-0.07-2.12.41a25.81,25.81,0,0,1-4.07,1,1.25,1.25,0,1,0,.43,2.41,12.88,12.88,0,0,0,3.61-1.37c0.22-.12.41,0,0.22,0.29-0.89,1.23-2.63,3.44-3.85,4.84s-1.45,1.59-2.58,2.89c-0.92,1.06-1.06.94-1.54,1.57-1.45,1.9,1.06,2.91,2.24,1.47,0.6-.72.14-0.29,1-1.25,2.63-3,8-4.75,10-2.1,1.13,1.47.39,3.73-2.46,5.2a13.13,13.13,0,0,1-4.31,1.23c-2.07.29-1.47,2.7,0.46,2.43a16.5,16.5,0,0,0,4.75-1.4c4.72-2,6-6.77,3-9.4-2.24-2-6.53-1.81-9,.12" transform="translate(0 0)"/><path class="cls-3" d="M276.64,125.76a18.33,18.33,0,0,1,7.16.07c2,0.41,2.48-2.07.46-2.51a25.61,25.61,0,0,0-7.69-.07c-2.14.31-1.83,2.87,0.07,2.51" transform="translate(0 0)"/><path class="cls-3" d="M285.53,134.92c-3.64,1-7.54,1.21-9.59-.89a1.27,1.27,0,0,0-2,1.57c1.66,2.34,7.45,3.47,12.22,2,2-.6,1.37-3.2-0.63-2.65" transform="translate(0 0)"/><path class="cls-3" d="M307.79,126.48a8.33,8.33,0,0,1,1.69,1.76c0.63,1.06,2.26-.15,1.52-1.3a7.84,7.84,0,0,0-2.1-1.83c-1-.6-2.22.65-1.11,1.37" transform="translate(0 0)"/><path class="cls-3" d="M303,120.85c-1-1-2.63.07-1.76,1.23a18.92,18.92,0,0,1,2,2.1c0.22,0.34.14,0.53-.36,0.79-1.06.58-.36,2,0.94,1.71,0.39-.1.84-0.29,1.16-0.34a1.46,1.46,0,0,0,1.42-1.61c-0.07-1.4-2.41-2.89-3.4-3.88" transform="translate(0 0)"/><path class="cls-3" d="M308.78,130.39c-1.35-.79-2.58.77-1.35,1.61a7.31,7.31,0,0,1,2.67,3.54c0.58,1.73,3.08.6,2.27-1.3a8.39,8.39,0,0,0-3.59-3.85" transform="translate(0 0)"/><path class="cls-3" d="M313.81,125.43a7.81,7.81,0,0,0-2.17-1.76c-1.06-.55-2.17.75-1,1.42a8.38,8.38,0,0,1,1.76,1.69c0.65,1,2.24-.22,1.45-1.35" transform="translate(0 0)"/><path class="cls-3" d="M302,127.91c-0.89-.92-2.92,0-1.57,1.59,0.53,0.6,1.93,1.86,2.58,2.77,1.37,1.93.77,4.77-3.3,3.11a1.07,1.07,0,1,0-.92,1.93c5.3,2.6,9.49-1.61,6.22-6.07a36,36,0,0,0-3-3.32" transform="translate(0 0)"/><path class="cls-3" d="M295.86,131.83a27,27,0,0,1-2.43,3.33c-1.52,1.64.43,3.28,1.9,1.54a18.81,18.81,0,0,0,2.7-4,1.16,1.16,0,0,0-2.17-.82" transform="translate(0 0)"/></g></svg>