<svg xmlns="http://www.w3.org/2000/svg" viewBox="0 0 120 120"><defs><style>.cls-1{fill:#c91e1d;}.cls-2{fill:#fff;}</style></defs><title>maincopy01</title><g id="circle"><circle class="cls-1" cx="60" cy="60" r="60"/></g><g id="text-2" data-name="text"><path class="cls-2" d="M42,75.91c-3.46,4.26-9,9.74-11.55,9.74a3.2,3.2,0,0,1-3.25-3A3,3,0,0,1,29,80,46.82,46.82,0,0,0,41.61,68.55l-9.38.22h-.07a2.81,2.81,0,0,1-3-2.81,2.73,2.73,0,0,1,3-2.81h.07l9.89.07L42,60V60A3,3,0,0,1,48,60V60l-.07,3.18,8.95-.07h.07A2.71,2.71,0,0,1,59.58,66a2.59,2.59,0,0,1-2.67,2.74h-.07l-9-.22.07,2.67a2.67,2.67,0,0,1,1.37-.51c1.15,0,6.06,2.38,7.87,3.9A3,3,0,0,1,58.28,77a3.47,3.47,0,0,1-3.18,3.46,2.81,2.81,0,0,1-1.88-.79,26.77,26.77,0,0,0-5.34-4L48,89.19a2.75,2.75,0,0,1-3,2.67,2.76,2.76,0,0,1-3-2.74Zm-11-19.13a2.78,2.78,0,1,1,0-5.56H45.43a50.89,50.89,0,0,0,3-8A2.7,2.7,0,0,1,51.14,41a3.48,3.48,0,0,1,3.54,3.18c0,1-1.08,3.25-3.18,7.07h6.64a2.78,2.78,0,1,1,0,5.56Zm45.18-1H69C68.67,67.4,67.3,80,60.88,88.83a4.27,4.27,0,0,1-3.46,1.88c-1.95,0-3.75-1.44-3.75-3.18a2.85,2.85,0,0,1,.79-1.95C61.31,77.5,62.61,66,62.61,55c0-3.61-.14-7.15-.29-10.54v-.87c0-4.84,1.8-6.93,6.64-8.37a133,133,0,0,0,12.49-5.05,4.38,4.38,0,0,1,1.8-.43,3.73,3.73,0,0,1,3.68,3.61,3.41,3.41,0,0,1-2.31,3.18c-2.38,1.08-10.47,3.68-12.41,4.26-2.38.72-3.18,1.88-3.18,4v4.91l20.64-.14a3.15,3.15,0,1,1,0,6.28H82.82Z"/><path class="cls-2" d="M33.09,40.4a2.8,2.8,0,1,1,0-5.56H56.48a2.78,2.78,0,1,1,0,5.56Z"/><path class="cls-2" d="M78.83,53.51a4,4,0,0,1,1.88.15,3.16,3.16,0,0,1,2.11,3l.07,32.23c0,2-1.66,3-3.39,3a3.07,3.07,0,0,1-3.32-3l.07-32.24A3.17,3.17,0,0,1,78.83,53.51Z"/><path class="cls-2" d="M38.36,51.23a3.5,3.5,0,0,1-.87-1.44,16.16,16.16,0,0,0-2.24-4.4,2.36,2.36,0,0,1-.58-1.52c0-1.44,1.52-2.6,3.1-2.6,3.1,0,5.56,6.13,5.56,7.36a3.08,3.08,0,0,1-1.3,2.6A3.53,3.53,0,0,1,38.36,51.23Z"/><path class="cls-2" d="M54.8,80.47a4,4,0,0,1-1.69-.92,18.67,18.67,0,0,0-4.77-3,2.74,2.74,0,0,1-1.45-1.16A3.17,3.17,0,0,1,48.08,71c2.49-1.35,6.89,2,8.08,2.79S58.78,76,58.3,78A3.44,3.44,0,0,1,54.8,80.47Z"/><circle class="cls-2" cx="45.03" cy="32.1" r="4.04"/></g></svg>