<svg xmlns="http://www.w3.org/2000/svg" viewBox="0 0 680 120"><defs><style>.cls-1{fill:#e83428;}.cls-2{fill:#fff;}.cls-3{fill:#231815;}</style></defs><title>maincopy</title><g id="main"><circle class="cls-1" cx="60" cy="60" r="60"/><path class="cls-2" d="M42,75.91c-3.46,4.26-9,9.74-11.55,9.74a3.2,3.2,0,0,1-3.25-3A3,3,0,0,1,29,80,46.82,46.82,0,0,0,41.61,68.55l-9.38.22h-.07a2.81,2.81,0,0,1-3-2.81,2.73,2.73,0,0,1,3-2.81h.07l9.89.07L42,60V60A3,3,0,0,1,48,60V60l-.07,3.18,8.95-.07h.07A2.71,2.71,0,0,1,59.58,66a2.59,2.59,0,0,1-2.67,2.74h-.07l-9-.22.07,2.67a2.67,2.67,0,0,1,1.37-.51c1.15,0,6.06,2.38,7.87,3.9A3,3,0,0,1,58.28,77a3.47,3.47,0,0,1-3.18,3.46,2.81,2.81,0,0,1-1.88-.79,26.77,26.77,0,0,0-5.34-4L48,89.19a2.75,2.75,0,0,1-3,2.67,2.76,2.76,0,0,1-3-2.74Zm-11-19.13a2.78,2.78,0,1,1,0-5.56H45.43a50.89,50.89,0,0,0,3-8A2.7,2.7,0,0,1,51.14,41a3.48,3.48,0,0,1,3.54,3.18c0,1-1.08,3.25-3.18,7.07h6.64a2.78,2.78,0,1,1,0,5.56Zm45.18-1H69C68.67,67.4,67.3,80,60.88,88.83a4.27,4.27,0,0,1-3.46,1.88c-1.95,0-3.75-1.44-3.75-3.18a2.85,2.85,0,0,1,.79-1.95C61.31,77.5,62.61,66,62.61,55c0-3.61-.14-7.15-.29-10.54v-.87c0-4.84,1.8-6.93,6.64-8.37a133,133,0,0,0,12.49-5.05,4.38,4.38,0,0,1,1.8-.43,3.73,3.73,0,0,1,3.68,3.61,3.41,3.41,0,0,1-2.31,3.18c-2.38,1.08-10.47,3.68-12.41,4.26-2.38.72-3.18,1.88-3.18,4v4.91l20.64-.14a3.15,3.15,0,1,1,0,6.28H82.82Z"/><path class="cls-2" d="M33.09,40.4a2.8,2.8,0,1,1,0-5.56H56.48a2.78,2.78,0,1,1,0,5.56Z"/><path class="cls-2" d="M78.83,53.51a4,4,0,0,1,1.88.15,3.16,3.16,0,0,1,2.11,3l.07,32.23c0,2-1.66,3-3.39,3a3.07,3.07,0,0,1-3.32-3l.07-32.24A3.17,3.17,0,0,1,78.83,53.51Z"/><path class="cls-2" d="M38.36,51.23a3.5,3.5,0,0,1-.87-1.44,16.16,16.16,0,0,0-2.24-4.4,2.36,2.36,0,0,1-.58-1.52c0-1.44,1.52-2.6,3.1-2.6,3.1,0,5.56,6.13,5.56,7.36a3.08,3.08,0,0,1-1.3,2.6A3.53,3.53,0,0,1,38.36,51.23Z"/><path class="cls-2" d="M54.8,80.47a4,4,0,0,1-1.69-.92,18.67,18.67,0,0,0-4.77-3,2.74,2.74,0,0,1-1.45-1.16A3.17,3.17,0,0,1,48.08,71c2.49-1.35,6.89,2,8.08,2.79S58.78,76,58.3,78A3.44,3.44,0,0,1,54.8,80.47Z"/><circle class="cls-2" cx="45.03" cy="32.1" r="4.04"/><path class="cls-3" d="M168.61,84.3c0,1.74-1.68,2.61-3.28,2.61S162,86,162,84.3v-.07l.2-18.36A62.53,62.53,0,0,1,143.35,83a4,4,0,0,1-2.14.67,3.29,3.29,0,0,1-3.35-3.22,3.23,3.23,0,0,1,2-2.88c8.17-4.29,13.67-9.31,19.23-16.68l-16.82.27h-.07a2.69,2.69,0,0,1-2.75-2.81,2.76,2.76,0,0,1,2.81-2.88l20,.07-.2-6.57c0-.47.07-2.88,3.15-2.88,1.67,0,3.28.94,3.28,2.75v.13l-.2,6.57,20.57-.07a2.74,2.74,0,0,1,2.75,2.88A2.63,2.63,0,0,1,189,61.12h-.07l-17.55-.27a58.37,58.37,0,0,0,19.76,15.68A3.08,3.08,0,0,1,193,79.34,3.81,3.81,0,0,1,189.25,83c-2.81,0-12.46-7-20.84-17.62l.2,18.89ZM145.7,50.46c0,1.88-1.74,2.88-3.42,2.88A3,3,0,0,1,139,50.4c0-.87-.07-1.74-.07-2.61s.07-1.94.07-2.95c.13-3.15,2.61-6.23,7.77-6.3l5.23-.07a3,3,0,0,1-.87-.94c-1.41-2.28-2.81-3.22-4.62-4.76a2.31,2.31,0,0,1-.87-1.74c0-1.47,1.61-2.81,3.42-2.81,2.61,0,7.64,5.29,7.64,7.24a3.63,3.63,0,0,1-1.94,3c6-.07,12.13-.07,18.22-.07a38.51,38.51,0,0,0,4.76-8.78,3.07,3.07,0,0,1,2.95-2.08c1.81,0,3.75,1.34,3.75,3.22s-3.82,6.5-4.82,7.71c1.47,0,3,.07,4.49.07,3.69.07,7.44,2.88,7.57,6.63.07.94.07,2,.07,3,0,2.28-.07,4.89-3.69,4.89-1.67,0-3.35-.94-3.35-2.75V50.2c0-5.76-.07-6.23-4.15-6.3-5.29-.07-11.26-.13-17-.13-4.76,0-9.38.07-13.47.13-3.62.07-4.15,1-4.36,3.35v3.22ZM166,38.07a2.32,2.32,0,0,1-2.28-1.61c-.94-2.41-2.41-3.82-3.89-5.63a2.07,2.07,0,0,1-.54-1.41c0-1.47,1.67-2.68,3.35-2.68,3,0,7,6.37,7,8.11S167.68,38.07,166,38.07Z"/><path class="cls-3" d="M259.55,52.88l-13.6-.27a41.74,41.74,0,0,0,15.81,7.84A2.77,2.77,0,0,1,264,63.13a3.39,3.39,0,0,1-3.48,3.35c-1.14,0-5.76-1.54-11.66-5.49a33.71,33.71,0,0,1,.2,3.62c0,6.37-.4,8-11.12,8A14,14,0,0,0,241.66,76c2.34-1.21,6.83-3.48,9.45-5.23a3.07,3.07,0,0,1,1.61-.54,2.86,2.86,0,0,1,2.88,2.61c0,1.67-1,2.48-8.51,5.56a53.77,53.77,0,0,0,13,2.08,2.71,2.71,0,0,1,2.75,2.75,3.25,3.25,0,0,1-3.55,3.15c-4.09,0-15.95-1.81-23.79-9a2.3,2.3,0,0,1,.07.67,2.63,2.63,0,0,1-2,2.55c-7.64,2.28-21.17,6-24.25,6a2.72,2.72,0,0,1-2.95-2.68,3,3,0,0,1,2.75-2.88c3.08-.47,6.43-1.14,9.65-1.81,0-6.1.13-12.46.2-17a4.4,4.4,0,0,1,.07-.94c-3.22,2.35-9.71,6.37-12.4,6.37a3,3,0,0,1-3.15-2.95A2.9,2.9,0,0,1,205.61,62c6.77-2.41,12-5.36,16.08-9.38l-13.6.27H208a2.37,2.37,0,0,1-2.55-2.48,2.53,2.53,0,0,1,2.61-2.61l22.58.13V45.17l-15.61.07c-1.67,0-2.48-1-2.48-2.08a2.31,2.31,0,0,1,2.48-2.28l15.61.07V38.27l-19.16.07A2.33,2.33,0,0,1,208.89,36a2.48,2.48,0,0,1,2.61-2.55h11.86c-.8-1-1.67-1.88-2.55-2.81a2,2,0,0,1-.67-1.41c0-1.34,1.67-2.55,3.22-2.55,2.35,0,5.36,3.48,7,6.83h3.35l4.15-.07A35.91,35.91,0,0,0,240.45,28a2.81,2.81,0,0,1,2.75-1.88c1.67,0,3.48,1.27,3.48,2.95,0,1-.6,2-2.35,4.42H256a2.45,2.45,0,1,1,0,4.89l-19.3-.07V41l15.75-.07a2.18,2.18,0,1,1,0,4.36l-15.75-.07v2.75l22.85-.13a2.55,2.55,0,0,1,.07,5.09Zm-22.78,4c1.74,0,3.35,0,4.89.07a17.72,17.72,0,0,1,2,.13A49.93,49.93,0,0,1,239,52.54H228.46A53.35,53.35,0,0,1,224.17,57a10.94,10.94,0,0,1,1.54-.13c1.54,0,3.22-.07,5-.07V55.42c0-1.47,1.54-2.14,3.08-2.14s3,.67,3,2.14Zm-12.06,21c3-.74,5.76-1.54,7.91-2.14a3.48,3.48,0,0,1,.74-.13c.13,0,.33.07.47.07a21.37,21.37,0,0,1-2.14-2.88c-2.34,0-4.76,0-7-.07ZM243.2,66.54H224.77V69H229c13.87,0,13.94,0,14.2-2Zm0-3.89c-.13-1.21-.67-1.94-2.34-1.94s-3.69-.07-5.63-.07c-10,0-10.32.07-10.38,2.14v.27H243.2Z"/><path class="cls-3" d="M277.94,34.32a2.48,2.48,0,0,1-2.61-2.55A2.65,2.65,0,0,1,278,29c2.68-.07,5.56-.13,8.44-.13s5.63.07,8.17.13c4.35.13,6.3,2.35,6.37,6.16.13,4.29.13,11.66.2,14.81v.4a6.2,6.2,0,0,1-.74,2.95,3,3,0,0,1,1.34-.27c1.61,0,3.22.94,3.22,2.68a10.64,10.64,0,0,1-.94,3.35c3.68,0,7.44.13,10.65.2,3.82.13,6.63,2.75,6.77,5.36.13,2.28.13,4.62.13,7s0,4.69-.13,7c-.13,3.15-2.81,6-7,6.16-3.22.07-7,.13-10.85.13-4.35,0-8.71-.07-12.26-.2-4.62-.2-7-2.68-7.24-6.1C284,76.46,284,74.25,284,72s.07-4.62.13-6.9c.13-2.75,2.08-5.7,7.1-5.83,2-.07,4.35-.13,6.83-.13.4-1.41.74-2.88.94-4A9.6,9.6,0,0,1,292.74,57c-2.61,0-6.17-.47-6.17-3.15a2.72,2.72,0,0,1,2.81-2.68,2.77,2.77,0,0,1,.74.07,13.34,13.34,0,0,0,2.14.2c1.88,0,2.75-.67,2.75-2.34,0,0,.07-3.22.07-6.57,0-7.24,0-8.17-2.34-8.24-1.88-.07-4.36-.13-7-.13s-5.29.07-7.77.13Zm.47,18.43a2.78,2.78,0,0,1-2.75-2.88,2.48,2.48,0,0,1,1.88-2.48,58.64,58.64,0,0,0,12.33-4.69,2.4,2.4,0,0,1,3.62,2.14,2.57,2.57,0,0,1-1.54,2.34C288.12,49.19,280.35,52.74,278.41,52.74Zm6.7-10.12a28.9,28.9,0,0,0-6-2.68,2.21,2.21,0,0,1-1.74-2.08,2.69,2.69,0,0,1,2.81-2.48c1.74,0,6.57,1.81,8.11,2.81a2.4,2.4,0,0,1,1.21,2.08,2.87,2.87,0,0,1-2.81,2.81A2.92,2.92,0,0,1,285.11,42.63Zm30.55,26.73c0-3.48-.2-5-3.28-5-3.42-.07-8-.13-12.26-.13-2.61,0-5.09,0-7.1.07-3.22.13-3.22,1.88-3.22,5.09ZM289.8,74.12c0,4,0,5.43,3.28,5.56,3,.13,7.17.2,11.19.2,2.88,0,5.76-.07,8.17-.13,3.22-.13,3.22-2.08,3.22-5.63Zm15.75-21.37a2.78,2.78,0,0,1-2.75-2.88,2.48,2.48,0,0,1,1.88-2.48,61.91,61.91,0,0,0,12.06-4.62,2.42,2.42,0,0,1,1.27-.33A2.53,2.53,0,0,1,320.42,45a2.69,2.69,0,0,1-1.54,2.34C312.11,50.93,306.28,52.74,305.54,52.74Zm.27-18.43a2.48,2.48,0,0,1-2.61-2.55A2.65,2.65,0,0,1,305.88,29c2.68-.07,5.43-.13,8.11-.13s5.29.07,7.84.13c4.36.13,6.43,2.35,6.5,6.16.13,4.29.13,11.86.2,15v.2c0,3.55-2.68,6.63-8.11,6.63C314.65,57,314,55,314,53.88a2.72,2.72,0,0,1,2.81-2.68,2.77,2.77,0,0,1,.74.07,12.59,12.59,0,0,0,2.08.2c1.81,0,2.68-.67,2.68-2.14,0,0,.07-3.28.07-6.7,0-7.64-.13-8.24-2.34-8.31-1.88-.07-4.22-.13-6.63-.13s-5,.07-7.5.13Zm8,8.78a2.92,2.92,0,0,1-1.54-.47,28.92,28.92,0,0,0-6-2.68,2.21,2.21,0,0,1-1.74-2.08,2.67,2.67,0,0,1,2.75-2.48c1.81,0,6.77,1.88,8.24,2.81a2.4,2.4,0,0,1,1.21,2.08A2.94,2.94,0,0,1,313.78,43.09Z"/><path class="cls-3" d="M340.57,55.15a4.39,4.39,0,0,1,.67-2.21,18.87,18.87,0,0,0,2.55-9.65,2.6,2.6,0,0,1,2.75-2.75c.4,0,3.08.07,3.08,3.35,0,3.75-2,14.14-6.16,14.14A2.86,2.86,0,0,1,340.57,55.15ZM351,30.3a2.9,2.9,0,0,1,3.15-2.95,3,3,0,0,1,3.22,2.95v10a3.15,3.15,0,0,1,1.74-.54c2.41,0,5.29,5.7,5.29,7.17a3,3,0,0,1-2.88,3,2,2,0,0,1-2-1.54A20.09,20.09,0,0,0,357.32,44V83.5c0,1.88-1.61,2.81-3.22,2.81A2.91,2.91,0,0,1,351,83.5Zm37.52,45.76c.13.07.2.13.33.2a26.31,26.31,0,0,0,10.52,3.35,2.83,2.83,0,0,1,2.75,2.95A3.16,3.16,0,0,1,399,85.84c-3.22,0-14.74-3.89-14.74-7.37a2.85,2.85,0,0,1,1.41-2.34c-1.54,0-3.15.07-4.69.07s-3.08-.07-4.69-.07a2.92,2.92,0,0,1,1.61,2.55,2.67,2.67,0,0,1-1.14,2.14c-3.48,2.81-10.65,5.36-14.41,5.36A3.06,3.06,0,0,1,359.2,83,2.87,2.87,0,0,1,362,80.15c4-.4,8.71-1.88,11.46-3.75a2.74,2.74,0,0,1,.6-.33h-1.81c-4.22-.07-6-1.94-6.16-5.56-.07-2-.07-4.42-.07-6.83s0-4.82.07-6.77c.07-2.61,1.27-5.23,6.1-5.43,2.55-.07,5.23-.13,8-.13,3.35,0,6.83.07,10.12.13,3.75.07,6,1.94,6.16,5,.13,1.88.2,4.42.2,6.9,0,9.45,0,12.46-6.7,12.66Zm8.71-34.17c-.07.47-.07,1-.13,1.41-.47,3.62-2.28,5.56-6.9,5.7-3.42.07-6.57.13-9.58.13-12.66,0-15.41,0-15.41-5.43v-.33c0-.4.07-.94.07-1.47h-2.08a2.32,2.32,0,0,1-2.28-2.55,2.32,2.32,0,0,1,2.28-2.55h2.48c.4-4.15.74-7.1,7.24-7.37,3-.13,6.1-.13,9.25-.13s6.5,0,9.92.13c4.09.13,5.7,2.34,5.7,5.09v.13c0,.6-.07,1.34-.13,2.14h2.88A2.46,2.46,0,0,1,403,39.41a2.39,2.39,0,0,1-2.48,2.48Zm-18.83-.6H371v1.47c0,1.94.13,2,7.1,2Zm.6-7.77c-1.67,0-3.35,0-4.82.07-2.41.07-2.48.94-2.81,3.82h7.3Zm11.93,28.61H371.6v2.95h19.3Zm-.13-4.82c0-1.88-1.67-1.88-10.12-1.88-7.84,0-8.78.13-8.91,2.08l-.07.87h19.16ZM371.66,68.82c0,.54.07,1,.07,1.47.07,1.61.33,1.88,9.45,1.88,8.31,0,9.45,0,9.58-2.08,0-.4.07-.87.07-1.27Zm12.19-27.54-.27,3.48c1.74,0,3.48,0,5.16-.07,2.14-.07,2.28-.74,2.68-3.42Zm7.91-3.89c.07-.67.07-1.34.07-1.81,0-2-.07-2.08-7.44-2.08l-.27,3.89Z"/><path class="cls-3" d="M424.46,85.24a25.6,25.6,0,0,0-8.24-7,3,3,0,0,1-1.81-2.68,3,3,0,0,1,3.15-2.95c2.34,0,13.07,5.9,13.07,10.45A3.7,3.7,0,0,1,427,86.71,3,3,0,0,1,424.46,85.24Z"/><path class="cls-3" d="M461.71,80.61c-2.14-6.77-1.94-15.41-1.07-23.52s2.35-15.61,2.68-20c.4-5.43,7.44-4.09,6.77.13-.47,3-1.61,8.84-2.48,14.54s-1.54,11.32-1.27,14c.13,1.21.2,1.41.87.07.2-.4.67-1.61.8-1.94,1.54-3.22,6.63-.94,4.22,4.09a41,41,0,0,0-2.08,5.29c-.54,1.67-.94,3.15-1.21,4.22-.54,1.88.33,3.75-1.34,5.36S462.85,84.23,461.71,80.61ZM482.55,82c-5.83-3.35-6-11,1-14.07a19.05,19.05,0,0,1,11.79-.8c0-1.07-.13-2.08-.2-3.35-.2-2.75-.33-7.91-.54-13.2a46,46,0,0,1-11,.47c-4.62-.4-3.82-7.24,1.34-6.37a28.12,28.12,0,0,0,9.45-.2c-.07-3.75-.13-7.17-.07-9.25.13-4.36,6.7-3.75,6.43-.13-.13,1.88-.2,4.69-.2,8,1.14-.33,2.34-.6,3.42-.94,4.35-1.34,7.24,4.76,1.47,6.16-1.61.4-3.22.8-4.82,1.14.07,5.23.27,10.45.4,13.74.07,1.67.33,3.89.4,6A32,32,0,0,1,509,74.12c3.82,3.48-.94,9.31-4.29,5.76a30.87,30.87,0,0,0-4.15-3.48C498,81.69,489.85,86.18,482.55,82Zm12.19-8.78c-3.35-1.27-6.7-1.61-9.25-.4a2.24,2.24,0,0,0-.4,4c3.22,1.81,8.64.4,9.71-3.55Z"/><path class="cls-3" d="M529.58,70.1c-.27-7,.47-12.73.8-19.83.2-4.35.67-10.92.54-15.08-.13-5,7.44-4.56,7.3-.13-.13,4.22-.6,10.59-.94,15.08-.47,7.1-1.47,13.2-1.21,19.7.4,9.78,12.33,9.11,24-.07,4.36-3.42,8.44,2.75,4.62,5.83C551.62,86.24,530.18,88.19,529.58,70.1ZM548.81,45.3c-3.69-1.54-.8-5.83,2.55-4.56,1.94.74,5.63,2.61,7.24,4.29,2.81,3-1.41,7.44-3.82,4.62A24.44,24.44,0,0,0,548.81,45.3Zm7.1-6.16c-3.75-1.41-1-5.83,2.41-4.69,1.94.67,5.63,2.41,7.3,4.09,2.95,2.88-1.21,7.44-3.69,4.69A25.17,25.17,0,0,0,555.91,39.14Z"/><path class="cls-3" d="M602.41,45.11a60.42,60.42,0,0,1-10.52.8c-5.16-.13-5.43-7.1.67-6.37a38.55,38.55,0,0,0,10.39-.47c-.07-3.55-.07-6.7,0-8.84.13-5.16,7.1-4,6.83-.07-.2,2.41-.33,5.09-.4,7.77,1.41-.27,2.95-.67,4.56-1,4.42-1,6.23,5.23.4,6.16-1.81.27-3.48.6-5,.87,0,2.48,0,5,.07,7.44,1.61-.47,3.28-.94,5.09-1.54,5-1.61,7.5,4.56,1.54,6.23-2.34.67-4.49,1.27-6.43,1.74.13,2.28.27,4.36.47,6.3s.4,4.22.54,6.63a31.17,31.17,0,0,1,8.31,4.76c4.49,3.69.13,9.78-4.09,5.9a30.82,30.82,0,0,0-4.89-3.62c-2.34,5.7-10.52,10.18-18.76,6.1-6.36-3.15-6.77-10.65.54-13.74A22.65,22.65,0,0,1,604.48,69c-.07-1.41-.2-2.81-.33-4.35s-.27-3.48-.4-5.56c-5.29,1-8.84,1.21-12.19.74-4.76-.67-4-7.57,1.41-6.43,1.94.4,5.29.4,10.45-.6-.13-2.55-.27-5.16-.33-7.77ZM593.76,75c-1.74.74-2.08,2.88-.2,3.82,4.09,2,9.31,0,10.32-3.75C600.26,73.92,596.71,73.72,593.76,75Z"/><path class="cls-3" d="M668.24,74.93c5-4.42,4.76-10.88.88-13.46-3.54-2.38-10.88-2.86-17.75,1.16a15,15,0,0,0-5.71,5.1c-2.45,3.6-9.25-.41-5-4.56,7.48-7.41,13-12.65,20.53-22,.75-1,.07-.68-.48-.41-1.9,1-6.39,2.38-11.42,3.47-5.37,1.16-6.39-5.58-1.77-6.12a105.23,105.23,0,0,0,15-3.33c5.44-1.56,9.93,3.26,6.53,7.07-2.18,2.45-4.9,5.1-7.62,7.62s-5.44,5-7.89,7.34c6-3.2,14.08-3.2,19.11-.2,9.79,5.85,6.6,17.81-.54,23-6.73,4.83-17.34,5.1-22.51,1.7-7.21-4.69-4-13.12,4-13.39,5.44-.2,10.54,3.06,10.74,9.18A9.16,9.16,0,0,0,668.24,74.93Zm-14.48-2c-3,.27-3.13,3.06-1,4.22a12.24,12.24,0,0,0,5.71,1C658.58,75,656.75,72.61,653.76,72.89Z"/></g></svg>